 <svg  version="1.0" xmlns="http://www.w3.org/2000/svg"  width="300.000000pt" height="213.000000pt" viewBox="0 0 300.000000 213.000000"  preserveAspectRatio="xMidYMid meet">  <g transform="translate(0.000000,213.000000) scale(0.100000,-0.100000)" fill="#ffffff" stroke="none"> <path d="M467 1284 c-1 -1 -1 -66 1 -143 l3 -141 35 0 35 0 -1 93 c-1 50 -1 97 0 102 0 6 18 -21 39 -60 73 -133 74 -135 101 -135 21 0 34 15 78 90 28 48 52 93 52 99 0 6 4 11 8 11 4 0 6 -45 4 -100 l-4 -100 36 0 36 0 0 135 c0 74 0 138 0 141 0 10 -90 8 -99 -2 -5 -5 -22 -34 -39 -64 -53 -97 -67 -120 -73 -120 -3 0 -15 19 -27 43 -12 23 -36 66 -54 96 -32 52 -34 53 -81 55 -26 1 -49 1 -50 0z m77 -52 c15 -18 15 -19 -10 -31 -32 -14 -38 -10 -30 24 8 30 17 31 40 7z m311 -2 c11 -17 -3 -28 -30 -22 -20 3 -23 7 -14 18 13 16 35 18 44 4z"/> <path d="M1320 1283 c0 -2 -1 -65 -1 -140 l0 -138 35 -3 c34 -3 36 -1 36 26 0 22 10 37 40 61 l41 33 47 -43 c26 -24 56 -51 66 -61 20 -18 111 -27 104 -10 -1 5 -37 39 -78 76 -41 38 -76 72 -78 77 -2 4 7 13 19 20 19 10 135 93 148 105 2 2 -25 1 -60 -3 -59 -6 -71 -11 -155 -75 -51 -37 -94 -68 -96 -68 -2 0 -2 33 0 73 l4 72 -36 1 c-20 0 -36 -1 -36 -3z m60 -158 c10 -12 10 -18 0 -30 -19 -23 -30 -18 -30 15 0 33 11 38 30 15z"/> <path d="M1788 1165 c-33 -66 -64 -124 -69 -130 -20 -21 -9 -35 29 -35 33 0 40 4 53 31 l14 32 84 1 84 1 15 -32 c14 -29 21 -33 54 -33 21 0 38 2 38 4 0 7 -132 261 -140 270 -5 5 -30 9 -55 10 l-47 1 -60 -120z m141 12 c14 -28 26 -54 28 -57 2 -3 -24 -5 -57 -5 -33 0 -59 3 -57 6 15 38 53 109 57 109 3 0 16 -24 29 -53z m-102 -58 c-1 -19 -37 -50 -37 -31 0 7 32 51 37 52 1 0 1 -9 0 -21z m167 -5 c20 -19 21 -34 2 -34 -13 0 -26 20 -26 41 0 13 6 11 24 -7z"/> <path d="M2160 1280 c-61 -15 -87 -71 -55 -117 20 -28 110 -47 258 -53 4 0 7 -7 7 -15 0 -24 -35 -35 -109 -35 -57 0 -75 4 -90 19 -25 25 -85 32 -89 10 -1 -8 6 -27 18 -41 27 -35 101 -52 201 -46 94 6 132 27 137 76 7 68 -26 85 -177 96 -90 7 -101 10 -101 31 0 19 23 25 101 25 57 0 72 -4 86 -20 11 -13 30 -20 51 -20 32 0 34 2 27 27 -7 27 -12 33 -49 55 -25 14 -171 20 -216 8z m244 -214 c-11 -14 -25 -26 -33 -26 -11 0 -10 5 4 20 9 10 15 26 12 34 -8 21 5 29 21 12 12 -12 12 -18 -4 -40z"/> <path d="M2469 1282 c0 -4 -1 -68 -1 -142 l1 -135 35 -3 36 -3 0 144 0 144 -35 1 c-19 1 -35 -2 -36 -6z m41 -157 c0 -36 -4 -65 -8 -65 -5 0 -10 29 -11 65 -1 40 2 65 8 65 7 0 11 -26 11 -65z"/> <path d="M988 1150 c-38 -71 -68 -134 -68 -140 0 -5 16 -10 35 -10 30 0 38 5 51 33 l15 32 86 0 85 0 13 -32 c12 -28 19 -33 50 -33 19 0 35 5 35 11 0 6 -30 69 -67 140 l-66 129 -51 0 -51 0 -67 -130z m146 30 c14 -27 26 -53 26 -57 0 -5 -25 -8 -55 -8 -30 0 -55 1 -55 3 0 6 52 112 55 112 1 0 15 -22 29 -50z"/> <path d="M1080 948 c-11 -12 -20 -32 -20 -45 0 -28 42 -73 67 -73 11 1 5 6 -14 15 -40 17 -52 55 -29 90 14 21 24 25 63 25 29 0 53 -6 65 -17 22 -20 24 -11 2 11 -25 25 -108 21 -134 -6z"/> <path d="M1300 963 c35 -2 71 -9 80 -16 13 -11 13 -10 1 6 -11 13 -27 17 -80 15 l-66 -2 65 -3z"/> <path d="M1410 945 c-13 -14 -21 -27 -18 -30 3 -3 13 6 22 20 14 21 24 25 66 25 39 0 52 -4 64 -22 9 -12 16 -17 16 -11 0 25 -32 43 -79 43 -38 0 -52 -5 -71 -25z"/> <path d="M1571 948 c1 -17 2 -19 6 -5 8 29 22 19 26 -20 l4 -38 1 43 c2 36 -1 42 -18 42 -14 0 -20 -6 -19 -22z"/> <path d="M1704 963 c2 -2 44 -5 93 -6 l88 -2 0 -35 0 -35 -52 -3 c-45 -3 -53 -6 -53 -23 0 -10 -7 -19 -15 -19 -11 0 -15 12 -15 52 0 39 -3 49 -12 40 -17 -17 2 -96 25 -100 12 -3 20 4 24 17 4 17 13 21 47 21 23 0 47 5 54 12 16 16 15 63 -2 77 -13 11 -193 15 -182 4z"/> <path d="M1104 915 c-4 -15 -1 -32 6 -40 13 -15 65 -21 73 -7 3 4 -11 7 -31 7 -28 0 -37 4 -40 19 -2 11 4 26 14 33 16 12 16 13 1 13 -9 0 -19 -11 -23 -25z"/> <path d="M1168 933 c30 -6 28 -23 -3 -23 -14 0 -25 -3 -25 -8 0 -4 20 -6 45 -4 44 4 45 3 45 -26 0 -21 -6 -32 -17 -34 -10 -3 1 -5 25 -6 35 -1 42 2 42 19 0 26 41 25 58 -1 7 -11 21 -20 32 -20 22 0 25 8 9 30 -9 13 -10 12 -5 -2 8 -25 -21 -23 -34 2 -6 12 -21 20 -36 20 -17 0 -28 -7 -31 -20 -9 -34 -32 -23 -35 18 -2 28 -7 36 -19 34 -9 -1 -19 4 -23 13 -3 8 -16 14 -28 14 l-23 -2 23 -4z"/> <path d="M1271 918 c1 -17 2 -19 6 -5 3 12 15 17 40 17 27 0 34 -3 29 -15 -3 -8 -1 -15 4 -15 6 0 10 9 10 20 0 17 -7 20 -45 20 -40 0 -45 -2 -44 -22z"/> <path d="M1437 933 c-10 -9 -9 -51 1 -57 5 -3 6 9 4 25 -4 30 -4 30 34 27 34 -3 39 -6 39 -28 0 -19 -6 -26 -30 -31 -29 -6 -29 -7 -4 -8 34 -1 53 22 45 54 -5 21 -12 25 -45 25 -21 0 -41 -3 -44 -7z"/> <path d="M1781 918 c1 -17 2 -19 6 -5 3 12 15 17 40 17 29 0 34 -3 28 -17 -5 -14 -3 -15 6 -6 19 18 1 33 -42 33 -34 0 -39 -3 -38 -22z"/> <path d="M1400 872 c0 -20 43 -42 80 -41 34 1 33 2 -9 9 -25 4 -50 15 -57 25 -8 10 -14 14 -14 7z"/> <path d="M1712 858 c-6 -6 -31 -15 -54 -19 l-43 -6 36 -2 c23 -1 45 6 60 19 13 10 22 19 19 20 -4 0 -11 -5 -18 -12z"/> </g> </svg> 