<?xml version="1.0" encoding="UTF-8"?><svg id="Calque_1" xmlns="http://www.w3.org/2000/svg" viewBox="0 0 595.28 419.53"><defs><style>.cls-1{letter-spacing:.02em;}.cls-2,.cls-3,.cls-4{fill:#fff;}.cls-5{letter-spacing:.01em;}.cls-3{font-family:AcuminConcept-BlackItalic, 'Acumin Variable Concept';font-size:76.88px;font-variation-settings:'wght' 800, 'wdth' 100, 'slnt' 12;font-weight:800;}.cls-3,.cls-4{font-style:italic;}.cls-6{letter-spacing:0em;}.cls-7{letter-spacing:.01em;}.cls-8{letter-spacing:0em;}.cls-9{letter-spacing:0em;}.cls-4{font-family:AcuminConcept-ExtraCondSemiboldItalic, 'Acumin Variable Concept';font-size:47.28px;font-variation-settings:'wght' 600, 'wdth' 50, 'slnt' 12;font-weight:600;}</style></defs><text class="cls-3" transform="translate(146.37 300.3)"><tspan class="cls-6" x="0" y="0">M</tspan><tspan class="cls-7" x="67.27" y="0">A</tspan><tspan class="cls-5" x="119.63" y="0">K</tspan><tspan class="cls-1" x="172.99" y="0">A</tspan><tspan class="cls-9" x="225.81" y="0">S</tspan><tspan x="275.47" y="0">I</tspan></text><text class="cls-4" transform="translate(253.33 344.9)"><tspan x="0" y="0">G</tspan><tspan class="cls-8" x="17.54" y="0">R</tspan><tspan x="34.51" y="0">OUP</tspan></text><path class="cls-2" d="M383.97,138.04l-11.16,15.52c-1.72,2.39-4.36,3.97-7.28,4.36h0s0,0,0,0c-1.06-.87-1.43-2.34-.88-3.6.92-2.1,1.89-4.21,2.89-6.31,2.66-5.63,4.43-9.9,5.45-13.09.02-.08.06-.17.07-.28.72-2.78.8-4.82.21-6.68-1-3.04-2.94-4.58-4.44-5.33-1.54-.81-3.34-1.13-5.24-.89-.66.08-1.34.21-2.04.42-.1.04-.23.08-.33.12-1.92.71-4.08,2.13-6.89,4.6-3.48,3.16-7.72,7.4-12.62,12.59-3.26,3.48-6.45,6.77-9.62,9.86.57-1.27,1.2-2.57,1.87-3.93,1.93-4.1,3.98-8.3,6.07-12.58,4.72-9.48,8.7-18.18,11.92-25.9,2.22-5.52,3.42-9.89,3.68-13.55.15-3.52-.72-6.38-2.55-8.52-1.18-1.44-3.36-3.16-7.04-3.54-.7-.08-1.48-.07-2.22.02-2.11.27-4.28,1.09-6.8,2.64-2.83,1.88-6,4.71-9.73,8.73-4.49,5.04-9.42,11.15-14.66,18.23.27-1.56.47-3.05.6-4.45.34-4.21-.12-7.87-1.42-11.03-1.56-3.56-3.82-6.13-6.64-7.62-2.94-1.58-6.24-2.16-9.83-1.74-1.05.12-2.15.36-3.44.72-5.62,1.75-11.38,4.88-17.15,9.27-4.4,3.37-7.9,6.17-10.57,8.5-.33.29-.71.53-1.13.64-1.59.42-3.01,1.54-3.76,3.14,0,0-1.11,2.38-1.16,2.43-.52,1.26-.75,2.52-.66,3.77.05.66.15,1.27.29,1.81.04.13.05.23.09.34.78,2.34,2.46,4.12,4.68,5.07,1.24.55,2.65.73,4.15.53l.58-.07c1.52-.23,2.75-.96,4.29-2.16.1-.07.2-.13.29-.22l1.65-1.42c1.62-1.5,3.87-3.45,6.75-5.81,2.78-2.28,5.79-4.47,9.02-6.53,2.71-1.76,5.19-2.9,7.46-3.44.06.55.1,1.35.02,2.43-.32,3.65-1.41,8.05-3.19,13.01-5.22,13.71-11.67,28.01-19.25,42.58-4.98,9.75-8.84,17.92-11.49,24.3-1.17,2.78-.02,5.99,2.65,7.39l4.67,2.45c1.05.55,2.22.73,3.33.6,1.71-.2,3.34-1.16,4.34-2.7.07-.11.14-.2.21-.29,1.64-2.41,4.54-6.87,8.63-13.28,5.82-9.21,12.94-20.11,21.15-32.49,7.75-11.7,15.39-22.48,22.72-32.03-1.61,3.4-3.38,7.02-5.33,10.89-2.16,4.37-4.23,8.67-6.18,12.8-3.25,6.74-5.74,12.7-7.45,17.71-1.41,4.2-2.01,7.53-1.88,10.24l.02.21c.32,3.89,2,6.18,3.41,7.43,1.56,1.47,4.31,3.05,8.71,2.51l.42-.05c3.61-.71,7.69-3.01,12.61-7.11.73-.65,1.47-1.31,2.22-1.99,2.07-1.88,5.37-.25,5.1,2.53-.09.98-.13,1.92-.11,2.84.28,5.79,3.05,8.76,5.42,10.22.96.64,2.03,1.1,3.21,1.39l-19.07,26.49c-.64.89-1.7,1.37-2.79,1.26l-73.72-7.39c-10.61-1.06-19.86-7.71-24.24-17.44l-24.09-53.43c-4.38-9.72-3.25-21.05,2.98-29.71l34.23-47.59c6.23-8.66,16.6-13.34,27.22-12.27l56.29,5.65c11.88,1.19,22.21,8.63,27.12,19.51l29.61,65.67c.45,1,.33,2.16-.31,3.04Z"/><circle class="cls-2" cx="371.7" cy="172.98" r="10.04"/><circle class="cls-2" cx="394" cy="175.21" r="7.81"/><circle class="cls-2" cx="411.84" cy="177.44" r="5.58"/></svg>